# xmcd
#
# Track frame offsets: 
#        150
#        11791
#        25078
#        39494
#        48753
#        62255
#        74283
#        88048
#        99640
#        113686
#        124690
#        136158
#        144256
#        159968
#
# Disc length: 2398 seconds
#
# Revision: 2
# Processed by: cddbd v1.5.2PL0 Copyright (c) Steve Scherf et al.
# Submitted via: ExactAudioCopy v0.99pb4
#
DISCID=a9095c0e
DTITLE=Danger Doom - Mouse and The Mask, The
DYEAR=2005
DGENRE=Hip Hop
TTITLE0=El Chupa Nibre
TTITLE1=Sofa King
TTITLE2=The Mask (feat Ghostface)
TTITLE3=Perfect Hair
TTITLE4=Benzi Box (feat Cee-Lo)
TTITLE5=Old School Rules (feat Talib Kweli)
TTITLE6=A.T.H.F.
TTITLE7=Basket Case
TTITLE8=No Names
TTITLE9=Crosshairs
TTITLE10=Mince Meat
TTITLE11=Vats Of Urine
TTITLE12=Space Ho's  
TTITLE13=Bada Bing
EXTD=YEAR: 2005
EXTT0=
EXTT1=
EXTT2=
EXTT3=
EXTT4=
EXTT5=
EXTT6=
EXTT7=
EXTT8=
EXTT9=
EXTT10=
EXTT11=
EXTT12=
EXTT13=
PLAYORDER=
